# xmcd
#
# Track frame offsets:
#	150
#	20685
#	49581
#	73905
#	98650
#	121034
#	137641
#	151874
#	177410
#	193073
#	209955
#
# Disc length: 3332 seconds
# Revision: 0
# Processed by: cddbd v1.5.2PL0 Copyright (c) Steve Scherf et al.
# Submitted via: dBpowerAMP V12.0
#
DISCID=9e0d020b
DTITLE=The Rusty Wright Band - This, That and The Other Thing
DYEAR=2013
DGENRE=Blues Rock
TTITLE0=Whole Lotta Rosie
TTITLE1=Man On Fire
TTITLE2=Alarm Clock Blues
TTITLE3=How Blue Are You
TTITLE4=Mississippi Queen
TTITLE5=Trouble and the Marryin Kind
TTITLE6=Hide In Plain Sight
TTITLE7=Baby Roll On
TTITLE8=High Price Woman
TTITLE9=Handyman
TTITLE10=Pen or Sword
EXTD=
EXTT0=
EXTT1=
EXTT2=
EXTT3=
EXTT4=
EXTT5=
EXTT6=
EXTT7=
EXTT8=
EXTT9=
EXTT10=
PLAYORDER=
